<?xml version='1.0' encoding='UTF-8'?>
<!DOCTYPE svg PUBLIC "-//W3C//DTD SVG 1.0//EN" "http://www.w3.org/TR/2001/REC-SVG-20010904/DTD/svg10.dtd">
<svg viewBox="0 0 632 860" xmlns="http://www.w3.org/2000/svg" xmlns:inkspace="http://www.inkscape.org/namespaces/inkscape" xmlns:xlink="http://www.w3.org/1999/xlink">
  <defs id="defs_block">
    <filter height="1.504" id="filter_blur" inkspace:collect="always" width="1.1575" x="-0.07875" y="-0.252">
      <feGaussianBlur id="feGaussianBlur3780" inkspace:collect="always" stdDeviation="4.2" />
    </filter>
  </defs>
  <title>blockdiag</title>
  <desc />
  <rect fill="rgb(0,0,0)" height="40" stroke="rgb(0,0,0)" style="filter:url(#filter_blur);opacity:0.7;fill-opacity:1" width="128" x="27" y="26" />
  <rect fill="rgb(0,0,0)" height="40" stroke="rgb(0,0,0)" style="filter:url(#filter_blur);opacity:0.7;fill-opacity:1" width="128" x="27" y="86" />
  <polygon fill="rgb(0,0,0)" points="91,138 163,166 91,194 19,166 91,138" stroke="rgb(0,0,0)" style="filter:url(#filter_blur);opacity:0.7;fill-opacity:1" />
  <polygon fill="rgb(0,0,0)" points="91,218 99,226 91,234 83,226 91,218" stroke="rgb(0,0,0)" style="filter:url(#filter_blur);opacity:0.7;fill-opacity:1" />
  <polygon fill="rgb(0,0,0)" points="243,218 251,226 243,234 235,226 243,218" stroke="rgb(0,0,0)" style="filter:url(#filter_blur);opacity:0.7;fill-opacity:1" />
  <polygon fill="rgb(0,0,0)" points="91,698 99,706 91,714 83,706 91,698" stroke="rgb(0,0,0)" style="filter:url(#filter_blur);opacity:0.7;fill-opacity:1" />
  <rect fill="rgb(0,0,0)" height="40" stroke="rgb(0,0,0)" style="filter:url(#filter_blur);opacity:0.7;fill-opacity:1" width="128" x="27" y="746" />
  <rect fill="rgb(0,0,0)" height="40" stroke="rgb(0,0,0)" style="filter:url(#filter_blur);opacity:0.7;fill-opacity:1" width="128" x="27" y="806" />
  <rect fill="rgb(0,0,0)" height="40" stroke="rgb(0,0,0)" style="filter:url(#filter_blur);opacity:0.7;fill-opacity:1" width="128" x="27" y="266" />
  <polygon fill="rgb(0,0,0)" points="243,338 251,346 243,354 235,346 243,338" stroke="rgb(0,0,0)" style="filter:url(#filter_blur);opacity:0.7;fill-opacity:1" />
  <polygon fill="rgb(0,0,0)" points="395,338 403,346 395,354 387,346 395,338" stroke="rgb(0,0,0)" style="filter:url(#filter_blur);opacity:0.7;fill-opacity:1" />
  <polygon fill="rgb(0,0,0)" points="243,398 251,406 243,414 235,406 243,398" stroke="rgb(0,0,0)" style="filter:url(#filter_blur);opacity:0.7;fill-opacity:1" />
  <polygon fill="rgb(0,0,0)" points="395,458 403,466 395,474 387,466 395,458" stroke="rgb(0,0,0)" style="filter:url(#filter_blur);opacity:0.7;fill-opacity:1" />
  <polygon fill="rgb(0,0,0)" points="547,458 555,466 547,474 539,466 547,458" stroke="rgb(0,0,0)" style="filter:url(#filter_blur);opacity:0.7;fill-opacity:1" />
  <rect fill="rgb(0,0,0)" height="40" stroke="rgb(0,0,0)" style="filter:url(#filter_blur);opacity:0.7;fill-opacity:1" width="128" x="331" y="506" />
  <polygon fill="rgb(0,0,0)" points="395,578 403,586 395,594 387,586 395,578" stroke="rgb(0,0,0)" style="filter:url(#filter_blur);opacity:0.7;fill-opacity:1" />
  <ellipse cx="547" cy="526" fill="rgb(0,0,0)" rx="24" ry="24" stroke="rgb(0,0,0)" style="filter:url(#filter_blur);opacity:0.7;fill-opacity:1" />
  <rect fill="rgb(0,0,0)" height="40" stroke="rgb(0,0,0)" style="filter:url(#filter_blur);opacity:0.7;fill-opacity:1" width="128" x="483" y="566" />
  <polygon fill="rgb(0,0,0)" points="547,638 555,646 547,654 539,646 547,638" stroke="rgb(0,0,0)" style="filter:url(#filter_blur);opacity:0.7;fill-opacity:1" />
  <polygon fill="rgb(0,0,0)" points="243,258 315,286 243,314 171,286 243,258" stroke="rgb(0,0,0)" style="filter:url(#filter_blur);opacity:0.7;fill-opacity:1" />
  <polygon fill="rgb(0,0,0)" points="395,378 467,406 395,434 323,406 395,378" stroke="rgb(0,0,0)" style="filter:url(#filter_blur);opacity:0.7;fill-opacity:1" />
  <rect fill="rgb(255,255,255)" height="40" stroke="rgb(0,0,0)" width="128" x="24" y="20" />
  <text fill="rgb(0,0,0)" font-family="sans-serif" font-size="11" font-style="normal" font-weight="normal" text-anchor="middle" textLength="30" x="88" y="46">START</text>
  <rect fill="rgb(255,255,255)" height="40" stroke="rgb(0,0,0)" width="128" x="24" y="80" />
  <text fill="rgb(0,0,0)" font-family="sans-serif" font-size="11" font-style="normal" font-weight="normal" text-anchor="middle" textLength="30" x="88" y="106">MAIN1</text>
  <polygon fill="rgb(255,255,255)" points="88,132 160,160 88,188 16,160 88,132" stroke="rgb(0,0,0)" />
  <text fill="rgb(0,0,0)" font-family="sans-serif" font-size="11" font-style="normal" font-weight="normal" text-anchor="middle" textLength="18" x="88" y="166">IF1</text>
  <polygon fill="rgb(255,255,255)" points="88,212 96,220 88,228 80,220 88,212" stroke="rgb(0,0,0)" />
  <text fill="rgb(0,0,0)" font-family="sans-serif" font-size="11" font-style="normal" font-weight="normal" text-anchor="middle" textLength="18" x="105" y="216">yes</text>
  <polygon fill="rgb(255,255,255)" points="240,212 248,220 240,228 232,220 240,212" stroke="rgb(0,0,0)" />
  <text fill="rgb(0,0,0)" font-family="sans-serif" font-size="11" font-style="normal" font-weight="normal" text-anchor="middle" textLength="12" x="254" y="216">No</text>
  <polygon fill="rgb(255,255,255)" points="88,692 96,700 88,708 80,700 88,692" stroke="rgb(0,0,0)" />
  <text fill="rgb(0,0,0)" font-family="sans-serif" font-size="11" font-style="normal" font-weight="normal" text-anchor="middle" textLength="42" x="117" y="696">IF1_end</text>
  <rect fill="rgb(255,255,255)" height="40" stroke="rgb(0,0,0)" width="128" x="24" y="740" />
  <text fill="rgb(0,0,0)" font-family="sans-serif" font-size="11" font-style="normal" font-weight="normal" text-anchor="middle" textLength="30" x="88" y="766">MAIN5</text>
  <rect fill="rgb(255,255,255)" height="40" stroke="rgb(0,0,0)" width="128" x="24" y="800" />
  <text fill="rgb(0,0,0)" font-family="sans-serif" font-size="11" font-style="normal" font-weight="normal" text-anchor="middle" textLength="18" x="88" y="826">END</text>
  <rect fill="rgb(255,192,203)" height="40" stroke="rgb(0,0,0)" width="128" x="24" y="260" />
  <text fill="rgb(0,0,0)" font-family="sans-serif" font-size="11" font-style="normal" font-weight="normal" text-anchor="middle" textLength="48" x="88" y="286">IF1_SUB1</text>
  <polygon fill="rgb(255,255,255)" points="240,332 248,340 240,348 232,340 240,332" stroke="rgb(0,0,0)" />
  <text fill="rgb(0,0,0)" font-family="sans-serif" font-size="11" font-style="normal" font-weight="normal" text-anchor="middle" textLength="18" x="257" y="336">yes</text>
  <polygon fill="rgb(255,255,255)" points="392,332 400,340 392,348 384,340 392,332" stroke="rgb(0,0,0)" />
  <text fill="rgb(0,0,0)" font-family="sans-serif" font-size="11" font-style="normal" font-weight="normal" text-anchor="middle" textLength="12" x="406" y="336">No</text>
  <polygon fill="rgb(255,255,255)" points="240,392 248,400 240,408 232,400 240,392" stroke="rgb(0,0,0)" />
  <text fill="rgb(0,0,0)" font-family="sans-serif" font-size="11" font-style="normal" font-weight="normal" text-anchor="middle" textLength="54" x="275" y="396">ELIF2_end</text>
  <polygon fill="rgb(255,255,255)" points="392,452 400,460 392,468 384,460 392,452" stroke="rgb(0,0,0)" />
  <text fill="rgb(0,0,0)" font-family="sans-serif" font-size="11" font-style="normal" font-weight="normal" text-anchor="middle" textLength="18" x="409" y="456">yes</text>
  <polygon fill="rgb(255,255,255)" points="544,452 552,460 544,468 536,460 544,452" stroke="rgb(0,0,0)" />
  <text fill="rgb(0,0,0)" font-family="sans-serif" font-size="11" font-style="normal" font-weight="normal" text-anchor="middle" textLength="12" x="558" y="456">No</text>
  <rect fill="rgb(255,192,203)" height="40" stroke="rgb(0,0,0)" width="128" x="328" y="500" />
  <text fill="rgb(0,0,0)" font-family="sans-serif" font-size="11" font-style="normal" font-weight="normal" text-anchor="middle" textLength="60" x="392" y="526">ELIF3_SUB1</text>
  <polygon fill="rgb(255,255,255)" points="392,572 400,580 392,588 384,580 392,572" stroke="rgb(0,0,0)" />
  <text fill="rgb(0,0,0)" font-family="sans-serif" font-size="11" font-style="normal" font-weight="normal" text-anchor="middle" textLength="54" x="427" y="576">ELIF3_end</text>
  <ellipse cx="544" cy="520" fill="rgb(128,128,128)" rx="24" ry="24" stroke="rgb(0,0,0)" />
  <text fill="rgb(0,0,0)" font-family="sans-serif" font-size="11" font-style="normal" font-weight="normal" text-anchor="middle" textLength="30" x="544" y="526">ELSE4</text>
  <rect fill="rgb(255,192,203)" height="40" stroke="rgb(0,0,0)" width="128" x="480" y="560" />
  <text fill="rgb(0,0,0)" font-family="sans-serif" font-size="11" font-style="normal" font-weight="normal" text-anchor="middle" textLength="60" x="544" y="586">ELSE4_SUB1</text>
  <polygon fill="rgb(255,255,255)" points="544,632 552,640 544,648 536,640 544,632" stroke="rgb(0,0,0)" />
  <text fill="rgb(0,0,0)" font-family="sans-serif" font-size="11" font-style="normal" font-weight="normal" text-anchor="middle" textLength="54" x="579" y="636">ELSE4_end</text>
  <polygon fill="rgb(255,255,255)" points="240,252 312,280 240,308 168,280 240,252" stroke="rgb(0,0,0)" />
  <text fill="rgb(0,0,0)" font-family="sans-serif" font-size="11" font-style="normal" font-weight="normal" text-anchor="middle" textLength="30" x="240" y="286">ELIF2</text>
  <polygon fill="rgb(255,255,255)" points="392,372 464,400 392,428 320,400 392,372" stroke="rgb(0,0,0)" />
  <text fill="rgb(0,0,0)" font-family="sans-serif" font-size="11" font-style="normal" font-weight="normal" text-anchor="middle" textLength="30" x="392" y="406">ELIF3</text>
  <path d="M 88 60 L 88 72" fill="none" stroke="rgb(0,0,0)" />
  <polygon fill="rgb(0,0,0)" points="88,79 84,72 92,72 88,79" stroke="rgb(0,0,0)" />
  <path d="M 88 120 L 88 124" fill="none" stroke="rgb(0,0,0)" />
  <polygon fill="rgb(0,0,0)" points="88,131 84,124 92,124 88,131" stroke="rgb(0,0,0)" />
  <path d="M 88 188 L 88 204" fill="none" stroke="rgb(0,0,0)" />
  <polygon fill="rgb(0,0,0)" points="88,211 84,204 92,204 88,211" stroke="rgb(0,0,0)" />
  <path d="M 88 188 L 88 190" fill="none" stroke="rgb(0,0,0)" />
  <path d="M 88 190 L 240 190" fill="none" stroke="rgb(0,0,0)" />
  <path d="M 240 190 L 240 204" fill="none" stroke="rgb(0,0,0)" />
  <polygon fill="rgb(0,0,0)" points="240,211 236,204 244,204 240,211" stroke="rgb(0,0,0)" />
  <path d="M 88 228 L 88 252" fill="none" stroke="rgb(0,0,0)" />
  <polygon fill="rgb(0,0,0)" points="88,259 84,252 92,252 88,259" stroke="rgb(0,0,0)" />
  <path d="M 88 708 L 88 732" fill="none" stroke="rgb(0,0,0)" />
  <polygon fill="rgb(0,0,0)" points="88,739 84,732 92,732 88,739" stroke="rgb(0,0,0)" />
  <path d="M 88 780 L 88 792" fill="none" stroke="rgb(0,0,0)" />
  <polygon fill="rgb(0,0,0)" points="88,799 84,792 92,792 88,799" stroke="rgb(0,0,0)" />
  <path d="M 88 300 L 88 684" fill="none" stroke="rgb(0,0,0)" />
  <polygon fill="rgb(0,0,0)" points="88,691 84,684 92,684 88,691" stroke="rgb(0,0,0)" />
  <path d="M 240 348 L 240 384" fill="none" stroke="rgb(0,0,0)" />
  <polygon fill="rgb(0,0,0)" points="240,391 236,384 244,384 240,391" stroke="rgb(0,0,0)" />
  <path d="M 240 408 L 240 790" fill="none" stroke="rgb(0,0,0)" />
  <path d="M 88 790 L 240 790" fill="none" stroke="rgb(0,0,0)" />
  <path d="M 88 790 L 88 792" fill="none" stroke="rgb(0,0,0)" />
  <polygon fill="rgb(0,0,0)" points="88,799 84,792 92,792 88,799" stroke="rgb(0,0,0)" />
  <path d="M 392 468 L 392 492" fill="none" stroke="rgb(0,0,0)" />
  <polygon fill="rgb(0,0,0)" points="392,499 388,492 396,492 392,499" stroke="rgb(0,0,0)" />
  <path d="M 392 540 L 392 564" fill="none" stroke="rgb(0,0,0)" />
  <polygon fill="rgb(0,0,0)" points="392,571 388,564 396,564 392,571" stroke="rgb(0,0,0)" />
  <path d="M 392 588 L 392 670" fill="none" stroke="rgb(0,0,0)" />
  <path d="M 88 670 L 236 670" fill="none" stroke="rgb(0,0,0)" />
  <path d="M 236.0 670.0 A4,4 0 0 1 244.0 670.0" fill="none" stroke="rgb(0,0,0)" />
  <path d="M 244 670 L 392 670" fill="none" stroke="rgb(0,0,0)" />
  <path d="M 88 670 L 88 684" fill="none" stroke="rgb(0,0,0)" />
  <polygon fill="rgb(0,0,0)" points="88,691 84,684 92,684 88,691" stroke="rgb(0,0,0)" />
  <path d="M 544 544 L 544 552" fill="none" stroke="rgb(0,0,0)" />
  <polygon fill="rgb(0,0,0)" points="544,559 540,552 548,552 544,559" stroke="rgb(0,0,0)" />
  <path d="M 544 600 L 544 624" fill="none" stroke="rgb(0,0,0)" />
  <polygon fill="rgb(0,0,0)" points="544,631 540,624 548,624 544,631" stroke="rgb(0,0,0)" />
  <path d="M 544 648 L 544 670" fill="none" stroke="rgb(0,0,0)" />
  <path d="M 88 670 L 236 670" fill="none" stroke="rgb(0,0,0)" />
  <path d="M 236.0 670.0 A4,4 0 0 1 244.0 670.0" fill="none" stroke="rgb(0,0,0)" />
  <path d="M 244 670 L 544 670" fill="none" stroke="rgb(0,0,0)" />
  <path d="M 88 670 L 88 684" fill="none" stroke="rgb(0,0,0)" />
  <polygon fill="rgb(0,0,0)" points="88,691 84,684 92,684 88,691" stroke="rgb(0,0,0)" />
  <path d="M 240 228 L 240 244" fill="none" stroke="rgb(0,0,0)" />
  <polygon fill="rgb(0,0,0)" points="240,251 236,244 244,244 240,251" stroke="rgb(0,0,0)" />
  <path d="M 240 308 L 240 324" fill="none" stroke="rgb(0,0,0)" />
  <polygon fill="rgb(0,0,0)" points="240,331 236,324 244,324 240,331" stroke="rgb(0,0,0)" />
  <path d="M 240 308 L 240 310" fill="none" stroke="rgb(0,0,0)" />
  <path d="M 240 310 L 392 310" fill="none" stroke="rgb(0,0,0)" />
  <path d="M 392 310 L 392 324" fill="none" stroke="rgb(0,0,0)" />
  <polygon fill="rgb(0,0,0)" points="392,331 388,324 396,324 392,331" stroke="rgb(0,0,0)" />
  <path d="M 392 348 L 392 364" fill="none" stroke="rgb(0,0,0)" />
  <polygon fill="rgb(0,0,0)" points="392,371 388,364 396,364 392,371" stroke="rgb(0,0,0)" />
  <path d="M 392 428 L 392 430" fill="none" stroke="rgb(0,0,0)" />
  <path d="M 392 430 L 544 430" fill="none" stroke="rgb(0,0,0)" />
  <path d="M 544 430 L 544 444" fill="none" stroke="rgb(0,0,0)" />
  <polygon fill="rgb(0,0,0)" points="544,451 540,444 548,444 544,451" stroke="rgb(0,0,0)" />
  <path d="M 392 428 L 392 444" fill="none" stroke="rgb(0,0,0)" />
  <polygon fill="rgb(0,0,0)" points="392,451 388,444 396,444 392,451" stroke="rgb(0,0,0)" />
  <path d="M 544 468 L 544 488" fill="none" stroke="rgb(0,0,0)" />
  <polygon fill="rgb(0,0,0)" points="544,495 540,488 548,488 544,495" stroke="rgb(0,0,0)" />
</svg>
