<?xml version='1.0' encoding='UTF-8'?>
<!DOCTYPE svg PUBLIC "-//W3C//DTD SVG 1.0//EN" "http://www.w3.org/TR/2001/REC-SVG-20010904/DTD/svg10.dtd">
<svg viewBox="0 0 176 440" xmlns="http://www.w3.org/2000/svg" xmlns:inkspace="http://www.inkscape.org/namespaces/inkscape" xmlns:xlink="http://www.w3.org/1999/xlink">
  <defs id="defs_block">
    <filter height="1.504" id="filter_blur" inkspace:collect="always" width="1.1575" x="-0.07875" y="-0.252">
      <feGaussianBlur id="feGaussianBlur3780" inkspace:collect="always" stdDeviation="4.2" />
    </filter>
  </defs>
  <title>blockdiag</title>
  <desc />
  <rect fill="rgb(0,0,0)" height="40" stroke="rgb(0,0,0)" style="filter:url(#filter_blur);opacity:0.7;fill-opacity:1" width="128" x="27" y="26" />
  <rect fill="rgb(0,0,0)" height="40" stroke="rgb(0,0,0)" style="filter:url(#filter_blur);opacity:0.7;fill-opacity:1" width="128" x="27" y="86" />
  <polygon fill="rgb(0,0,0)" points="91,138 163,166 91,194 19,166 91,138" stroke="rgb(0,0,0)" style="filter:url(#filter_blur);opacity:0.7;fill-opacity:1" />
  <polygon fill="rgb(0,0,0)" points="91,218 99,226 91,234 83,226 91,218" stroke="rgb(0,0,0)" style="filter:url(#filter_blur);opacity:0.7;fill-opacity:1" />
  <polygon fill="rgb(0,0,0)" points="91,338 99,346 91,354 83,346 91,338" stroke="rgb(0,0,0)" style="filter:url(#filter_blur);opacity:0.7;fill-opacity:1" />
  <rect fill="rgb(0,0,0)" height="40" stroke="rgb(0,0,0)" style="filter:url(#filter_blur);opacity:0.7;fill-opacity:1" width="128" x="27" y="386" />
  <rect fill="rgb(0,0,0)" height="40" stroke="rgb(0,0,0)" style="filter:url(#filter_blur);opacity:0.7;fill-opacity:1" width="128" x="27" y="266" />
  <rect fill="rgb(255,255,255)" height="40" stroke="rgb(0,0,0)" width="128" x="24" y="20" />
  <text fill="rgb(0,0,0)" font-family="sans-serif" font-size="11" font-style="normal" font-weight="normal" text-anchor="middle" textLength="30" x="88" y="46">START</text>
  <rect fill="rgb(255,255,255)" height="40" stroke="rgb(0,0,0)" width="128" x="24" y="80" />
  <text fill="rgb(0,0,0)" font-family="sans-serif" font-size="11" font-style="normal" font-weight="normal" text-anchor="middle" textLength="24" x="88" y="106">SUB1</text>
  <polygon fill="rgb(255,255,255)" points="88,132 160,160 88,188 16,160 88,132" stroke="rgb(0,0,0)" />
  <text fill="rgb(0,0,0)" font-family="sans-serif" font-size="11" font-style="normal" font-weight="normal" text-anchor="middle" textLength="18" x="88" y="166">IF1</text>
  <polygon fill="rgb(255,255,255)" points="88,212 96,220 88,228 80,220 88,212" stroke="rgb(0,0,0)" />
  <text fill="rgb(0,0,0)" font-family="sans-serif" font-size="11" font-style="normal" font-weight="normal" text-anchor="middle" textLength="18" x="105" y="216">yes</text>
  <polygon fill="rgb(255,255,255)" points="88,332 96,340 88,348 80,340 88,332" stroke="rgb(0,0,0)" />
  <text fill="rgb(0,0,0)" font-family="sans-serif" font-size="11" font-style="normal" font-weight="normal" text-anchor="middle" textLength="42" x="117" y="336">IF1_end</text>
  <rect fill="rgb(255,255,255)" height="40" stroke="rgb(0,0,0)" width="128" x="24" y="380" />
  <text fill="rgb(0,0,0)" font-family="sans-serif" font-size="11" font-style="normal" font-weight="normal" text-anchor="middle" textLength="24" x="88" y="406">NEXT</text>
  <rect fill="rgb(255,192,203)" height="40" stroke="rgb(0,0,0)" width="128" x="24" y="260" />
  <text fill="rgb(0,0,0)" font-family="sans-serif" font-size="11" font-style="normal" font-weight="normal" text-anchor="middle" textLength="66" x="88" y="286">IF1_SUBSUB1</text>
  <path d="M 88 60 L 88 72" fill="none" stroke="rgb(0,0,0)" />
  <polygon fill="rgb(0,0,0)" points="88,79 84,72 92,72 88,79" stroke="rgb(0,0,0)" />
  <path d="M 88 120 L 88 124" fill="none" stroke="rgb(0,0,0)" />
  <polygon fill="rgb(0,0,0)" points="88,131 84,124 92,124 88,131" stroke="rgb(0,0,0)" />
  <path d="M 88 188 L 88 204" fill="none" stroke="rgb(0,0,0)" />
  <polygon fill="rgb(0,0,0)" points="88,211 84,204 92,204 88,211" stroke="rgb(0,0,0)" />
  <path d="M 88 228 L 88 252" fill="none" stroke="rgb(0,0,0)" />
  <polygon fill="rgb(0,0,0)" points="88,259 84,252 92,252 88,259" stroke="rgb(0,0,0)" />
  <path d="M 88 348 L 88 372" fill="none" stroke="rgb(0,0,0)" />
  <polygon fill="rgb(0,0,0)" points="88,379 84,372 92,372 88,379" stroke="rgb(0,0,0)" />
  <path d="M 88 300 L 88 324" fill="none" stroke="rgb(0,0,0)" />
  <polygon fill="rgb(0,0,0)" points="88,331 84,324 92,324 88,331" stroke="rgb(0,0,0)" />
</svg>
