<?xml version='1.0' encoding='UTF-8'?>
<!DOCTYPE svg PUBLIC "-//W3C//DTD SVG 1.0//EN" "http://www.w3.org/TR/2001/REC-SVG-20010904/DTD/svg10.dtd">
<svg viewBox="0 0 480 800" xmlns="http://www.w3.org/2000/svg" xmlns:inkspace="http://www.inkscape.org/namespaces/inkscape" xmlns:xlink="http://www.w3.org/1999/xlink">
  <defs id="defs_block">
    <filter height="1.504" id="filter_blur" inkspace:collect="always" width="1.1575" x="-0.07875" y="-0.252">
      <feGaussianBlur id="feGaussianBlur3780" inkspace:collect="always" stdDeviation="4.2" />
    </filter>
  </defs>
  <title>blockdiag</title>
  <desc />
  <rect fill="rgb(0,0,0)" height="40" stroke="rgb(0,0,0)" style="filter:url(#filter_blur);opacity:0.7;fill-opacity:1" width="128" x="27" y="26" />
  <rect fill="rgb(0,0,0)" height="40" stroke="rgb(0,0,0)" style="filter:url(#filter_blur);opacity:0.7;fill-opacity:1" width="128" x="27" y="86" />
  <polygon fill="rgb(0,0,0)" points="91,138 163,166 91,194 19,166 91,138" stroke="rgb(0,0,0)" style="filter:url(#filter_blur);opacity:0.7;fill-opacity:1" />
  <polygon fill="rgb(0,0,0)" points="91,218 99,226 91,234 83,226 91,218" stroke="rgb(0,0,0)" style="filter:url(#filter_blur);opacity:0.7;fill-opacity:1" />
  <polygon fill="rgb(0,0,0)" points="243,218 251,226 243,234 235,226 243,218" stroke="rgb(0,0,0)" style="filter:url(#filter_blur);opacity:0.7;fill-opacity:1" />
  <polygon fill="rgb(0,0,0)" points="91,638 99,646 91,654 83,646 91,638" stroke="rgb(0,0,0)" style="filter:url(#filter_blur);opacity:0.7;fill-opacity:1" />
  <rect fill="rgb(0,0,0)" height="40" stroke="rgb(0,0,0)" style="filter:url(#filter_blur);opacity:0.7;fill-opacity:1" width="128" x="27" y="686" />
  <rect fill="rgb(0,0,0)" height="40" stroke="rgb(0,0,0)" style="filter:url(#filter_blur);opacity:0.7;fill-opacity:1" width="128" x="27" y="746" />
  <rect fill="rgb(0,0,0)" height="40" stroke="rgb(0,0,0)" style="filter:url(#filter_blur);opacity:0.7;fill-opacity:1" width="128" x="27" y="266" />
  <polygon fill="rgb(0,0,0)" points="243,338 251,346 243,354 235,346 243,338" stroke="rgb(0,0,0)" style="filter:url(#filter_blur);opacity:0.7;fill-opacity:1" />
  <polygon fill="rgb(0,0,0)" points="395,338 403,346 395,354 387,346 395,338" stroke="rgb(0,0,0)" style="filter:url(#filter_blur);opacity:0.7;fill-opacity:1" />
  <rect fill="rgb(0,0,0)" height="40" stroke="rgb(0,0,0)" style="filter:url(#filter_blur);opacity:0.7;fill-opacity:1" width="128" x="179" y="386" />
  <polygon fill="rgb(0,0,0)" points="243,578 251,586 243,594 235,586 243,578" stroke="rgb(0,0,0)" style="filter:url(#filter_blur);opacity:0.7;fill-opacity:1" />
  <rect fill="rgb(0,0,0)" height="40" stroke="rgb(0,0,0)" style="filter:url(#filter_blur);opacity:0.7;fill-opacity:1" width="128" x="331" y="386" />
  <rect fill="rgb(0,0,0)" height="40" stroke="rgb(0,0,0)" style="filter:url(#filter_blur);opacity:0.7;fill-opacity:1" width="128" x="331" y="446" />
  <polygon fill="rgb(0,0,0)" points="395,518 403,526 395,534 387,526 395,518" stroke="rgb(0,0,0)" style="filter:url(#filter_blur);opacity:0.7;fill-opacity:1" />
  <polygon fill="rgb(0,0,0)" points="243,258 315,286 243,314 171,286 243,258" stroke="rgb(0,0,0)" style="filter:url(#filter_blur);opacity:0.7;fill-opacity:1" />
  <rect fill="rgb(255,255,255)" height="40" stroke="rgb(0,0,0)" width="128" x="24" y="20" />
  <text fill="rgb(0,0,0)" font-family="sans-serif" font-size="11" font-style="normal" font-weight="normal" text-anchor="middle" textLength="30" x="88" y="46">START</text>
  <rect fill="rgb(255,255,255)" height="40" stroke="rgb(0,0,0)" width="128" x="24" y="80" />
  <text fill="rgb(0,0,0)" font-family="sans-serif" font-size="11" font-style="normal" font-weight="normal" text-anchor="middle" textLength="30" x="88" y="106">MAIN1</text>
  <polygon fill="rgb(255,255,255)" points="88,132 160,160 88,188 16,160 88,132" stroke="rgb(0,0,0)" />
  <text fill="rgb(0,0,0)" font-family="sans-serif" font-size="11" font-style="normal" font-weight="normal" text-anchor="middle" textLength="18" x="88" y="166">IF1</text>
  <polygon fill="rgb(255,255,255)" points="88,212 96,220 88,228 80,220 88,212" stroke="rgb(0,0,0)" />
  <text fill="rgb(0,0,0)" font-family="sans-serif" font-size="11" font-style="normal" font-weight="normal" text-anchor="middle" textLength="18" x="105" y="216">yes</text>
  <polygon fill="rgb(255,255,255)" points="240,212 248,220 240,228 232,220 240,212" stroke="rgb(0,0,0)" />
  <text fill="rgb(0,0,0)" font-family="sans-serif" font-size="11" font-style="normal" font-weight="normal" text-anchor="middle" textLength="12" x="254" y="216">No</text>
  <polygon fill="rgb(255,255,255)" points="88,632 96,640 88,648 80,640 88,632" stroke="rgb(0,0,0)" />
  <text fill="rgb(0,0,0)" font-family="sans-serif" font-size="11" font-style="normal" font-weight="normal" text-anchor="middle" textLength="42" x="117" y="636">IF1_end</text>
  <rect fill="rgb(255,255,255)" height="40" stroke="rgb(0,0,0)" width="128" x="24" y="680" />
  <text fill="rgb(0,0,0)" font-family="sans-serif" font-size="11" font-style="normal" font-weight="normal" text-anchor="middle" textLength="30" x="88" y="706">MAIN4</text>
  <rect fill="rgb(255,255,255)" height="40" stroke="rgb(0,0,0)" width="128" x="24" y="740" />
  <text fill="rgb(0,0,0)" font-family="sans-serif" font-size="11" font-style="normal" font-weight="normal" text-anchor="middle" textLength="18" x="88" y="766">END</text>
  <rect fill="rgb(255,192,203)" height="40" stroke="rgb(0,0,0)" width="128" x="24" y="260" />
  <text fill="rgb(0,0,0)" font-family="sans-serif" font-size="11" font-style="normal" font-weight="normal" text-anchor="middle" textLength="48" x="88" y="286">IF1_SUB1</text>
  <polygon fill="rgb(255,255,255)" points="240,332 248,340 240,348 232,340 240,332" stroke="rgb(0,0,0)" />
  <text fill="rgb(0,0,0)" font-family="sans-serif" font-size="11" font-style="normal" font-weight="normal" text-anchor="middle" textLength="18" x="257" y="336">yes</text>
  <polygon fill="rgb(255,255,255)" points="392,332 400,340 392,348 384,340 392,332" stroke="rgb(0,0,0)" />
  <text fill="rgb(0,0,0)" font-family="sans-serif" font-size="11" font-style="normal" font-weight="normal" text-anchor="middle" textLength="12" x="406" y="336">No</text>
  <rect fill="rgb(255,192,203)" height="40" stroke="rgb(0,0,0)" width="128" x="176" y="380" />
  <text fill="rgb(0,0,0)" font-family="sans-serif" font-size="11" font-style="normal" font-weight="normal" text-anchor="middle" textLength="102" x="240" y="406">ELIF2_SUB1_return</text>
  <polygon fill="rgb(255,255,255)" points="240,572 248,580 240,588 232,580 240,572" stroke="rgb(0,0,0)" />
  <text fill="rgb(0,0,0)" font-family="sans-serif" font-size="11" font-style="normal" font-weight="normal" text-anchor="middle" textLength="54" x="275" y="576">ELIF2_end</text>
  <rect fill="rgb(255,255,255)" height="40" stroke="rgb(0,0,0)" width="128" x="328" y="380" />
  <text fill="rgb(0,0,0)" font-family="sans-serif" font-size="11" font-style="normal" font-weight="normal" text-anchor="middle" textLength="60" x="392" y="406">ELSE3_else</text>
  <rect fill="rgb(255,192,203)" height="40" stroke="rgb(0,0,0)" width="128" x="328" y="440" />
  <text fill="rgb(0,0,0)" font-family="sans-serif" font-size="11" font-style="normal" font-weight="normal" text-anchor="middle" textLength="60" x="392" y="466">ELSE3_SUB1</text>
  <polygon fill="rgb(255,255,255)" points="392,512 400,520 392,528 384,520 392,512" stroke="rgb(0,0,0)" />
  <text fill="rgb(0,0,0)" font-family="sans-serif" font-size="11" font-style="normal" font-weight="normal" text-anchor="middle" textLength="54" x="427" y="516">ELSE3_end</text>
  <polygon fill="rgb(255,255,255)" points="240,252 312,280 240,308 168,280 240,252" stroke="rgb(0,0,0)" />
  <text fill="rgb(0,0,0)" font-family="sans-serif" font-size="11" font-style="normal" font-weight="normal" text-anchor="middle" textLength="30" x="240" y="286">ELIF2</text>
  <path d="M 88 60 L 88 72" fill="none" stroke="rgb(0,0,0)" />
  <polygon fill="rgb(0,0,0)" points="88,79 84,72 92,72 88,79" stroke="rgb(0,0,0)" />
  <path d="M 88 120 L 88 124" fill="none" stroke="rgb(0,0,0)" />
  <polygon fill="rgb(0,0,0)" points="88,131 84,124 92,124 88,131" stroke="rgb(0,0,0)" />
  <path d="M 88 188 L 88 190" fill="none" stroke="rgb(0,0,0)" />
  <path d="M 88 190 L 240 190" fill="none" stroke="rgb(0,0,0)" />
  <path d="M 240 190 L 240 204" fill="none" stroke="rgb(0,0,0)" />
  <polygon fill="rgb(0,0,0)" points="240,211 236,204 244,204 240,211" stroke="rgb(0,0,0)" />
  <path d="M 88 188 L 88 204" fill="none" stroke="rgb(0,0,0)" />
  <polygon fill="rgb(0,0,0)" points="88,211 84,204 92,204 88,211" stroke="rgb(0,0,0)" />
  <path d="M 88 228 L 88 252" fill="none" stroke="rgb(0,0,0)" />
  <polygon fill="rgb(0,0,0)" points="88,259 84,252 92,252 88,259" stroke="rgb(0,0,0)" />
  <path d="M 88 648 L 88 672" fill="none" stroke="rgb(0,0,0)" />
  <polygon fill="rgb(0,0,0)" points="88,679 84,672 92,672 88,679" stroke="rgb(0,0,0)" />
  <path d="M 88 720 L 88 732" fill="none" stroke="rgb(0,0,0)" />
  <polygon fill="rgb(0,0,0)" points="88,739 84,732 92,732 88,739" stroke="rgb(0,0,0)" />
  <path d="M 88 300 L 88 624" fill="none" stroke="rgb(0,0,0)" />
  <polygon fill="rgb(0,0,0)" points="88,631 84,624 92,624 88,631" stroke="rgb(0,0,0)" />
  <path d="M 240 348 L 240 372" fill="none" stroke="rgb(0,0,0)" />
  <polygon fill="rgb(0,0,0)" points="240,379 236,372 244,372 240,379" stroke="rgb(0,0,0)" />
  <path d="M 240 420 L 240 564" fill="none" stroke="rgb(0,0,0)" />
  <polygon fill="rgb(0,0,0)" points="240,571 236,564 244,564 240,571" stroke="rgb(0,0,0)" />
  <path d="M 240 588 L 240 610" fill="none" stroke="rgb(0,0,0)" />
  <path d="M 88 610 L 240 610" fill="none" stroke="rgb(0,0,0)" />
  <path d="M 88 610 L 88 624" fill="none" stroke="rgb(0,0,0)" />
  <polygon fill="rgb(0,0,0)" points="88,631 84,624 92,624 88,631" stroke="rgb(0,0,0)" />
  <path d="M 392 420 L 392 432" fill="none" stroke="rgb(0,0,0)" />
  <polygon fill="rgb(0,0,0)" points="392,439 388,432 396,432 392,439" stroke="rgb(0,0,0)" />
  <path d="M 392 480 L 392 504" fill="none" stroke="rgb(0,0,0)" />
  <polygon fill="rgb(0,0,0)" points="392,511 388,504 396,504 392,511" stroke="rgb(0,0,0)" />
  <path d="M 392 528 L 392 550" fill="none" stroke="rgb(0,0,0)" />
  <path d="M 240 550 L 392 550" fill="none" stroke="rgb(0,0,0)" />
  <path d="M 240 550 L 240 564" fill="none" stroke="rgb(0,0,0)" />
  <polygon fill="rgb(0,0,0)" points="240,571 236,564 244,564 240,571" stroke="rgb(0,0,0)" />
  <path d="M 240 228 L 240 244" fill="none" stroke="rgb(0,0,0)" />
  <polygon fill="rgb(0,0,0)" points="240,251 236,244 244,244 240,251" stroke="rgb(0,0,0)" />
  <path d="M 240 308 L 240 324" fill="none" stroke="rgb(0,0,0)" />
  <polygon fill="rgb(0,0,0)" points="240,331 236,324 244,324 240,331" stroke="rgb(0,0,0)" />
  <path d="M 240 308 L 240 310" fill="none" stroke="rgb(0,0,0)" />
  <path d="M 240 310 L 392 310" fill="none" stroke="rgb(0,0,0)" />
  <path d="M 392 310 L 392 324" fill="none" stroke="rgb(0,0,0)" />
  <polygon fill="rgb(0,0,0)" points="392,331 388,324 396,324 392,331" stroke="rgb(0,0,0)" />
  <path d="M 392 348 L 392 372" fill="none" stroke="rgb(0,0,0)" />
  <polygon fill="rgb(0,0,0)" points="392,379 388,372 396,372 392,379" stroke="rgb(0,0,0)" />
</svg>
